<svg xmlns="http://www.w3.org/2000/svg" width="160" height="160" viewBox="0 0 160 160">
  <g
    fill="none"
    stroke="rgba(255,255,255,0.05)"
    stroke-width="1"
    stroke-linecap="round"
    stroke-linejoin="round"
  >

    <!-- Document card -->
    <g transform="translate(-1 22) rotate(-8)">
      <rect x="0" y="0" width="32" height="42" rx="10"/>
      <line x1="7" y1="14" x2="26" y2="14"/>
      <line x1="7" y1="24" x2="22" y2="24"/>
      <line x1="7" y1="32" x2="18" y2="32"/>
    </g>

    <!-- Checklist -->
    <g transform="translate(96 28) rotate(6)">
      <rect x="0" y="0" width="20" height="20" rx="9"/>
      <polyline points="5,11 9,15 15,7"/>
    </g>

    <!-- Folder -->
    <g transform="translate(24 98) rotate(4)">
      <path
        d="
          M4 12
          Q4 6 10 6
          H28
          L36 14
          H58
          Q64 14 64 20
          V44
          Q64 50 58 50
          H10
          Q4 50 4 44
          Z
        "
      />
    </g>
    
    <!-- Tab UI -->
    <g transform="translate(110 130) rotate(-9)">
      <path
        d="
          M4 14
          Q4 8 10 8
          H22
          L28 2
          H40
          Q46 2 46 8
          V26
          Q46 32 40 32
          H10
          Q4 32 4 26
          Z
        "
      />
    </g>

    <!-- Note card -->
    <g transform="translate(120 90) rotate(-6)">
      <rect x="0" y="0" width="30" height="22" rx="9"/>
      <line x1="7" y1="9" x2="23" y2="9"/>
      <line x1="7" y1="15" x2="19" y2="15"/>
    </g>

    <!-- UI pill -->
    <g transform="translate(75 70) rotate(17)">
      <rect x="0" y="0" width="28" height="12" rx="7"/>
      <circle cx="6" cy="6" r="1.5"/>
    </g>

    <!-- Micro motion curves (softer & centered) -->
    <path d="M120 71 q12 8 26 0"/>
    <path d="M32 79 q28 -8 28 10"/>

    <!-- Balanced floating dots -->
    <circle cx="75" cy="56" r="2"/>
    <circle cx="105" cy="110" r="2"/>
    <circle cx="40" cy="124" r="2"/>
    <circle cx="136" cy="52" r="1.5"/>

  </g>
</svg>
